<?xml version="1.0" encoding="utf-8"?>
<svg width="87" height="60" viewBox="0 0 87 60" fill="none" xmlns="http://www.w3.org/2000/svg">
  <g>
    <rect width="87" height="60" />
    <g id="Group" transform="translate(2 4)">
      <path id="Oval" d="M0 7.5C0 3.35786 3.35786 0 7.5 0C11.6421 0 15 3.35786 15 7.5C15 11.6421 11.6421 15 7.5 15C3.35786 15 0 11.6421 0 7.5Z" fill="#FFFFFF" fill-rule="evenodd" />
      <path id="Oval" d="M0 7.5C0 3.35786 3.35786 0 7.5 0C11.6421 0 15 3.35786 15 7.5C15 11.6421 11.6421 15 7.5 15C3.35786 15 0 11.6421 0 7.5Z" fill="#FFFFFF" fill-rule="evenodd" transform="translate(0 19)" />
      <path id="Oval" d="M0 7.5C0 3.35786 3.35786 0 7.5 0C11.6421 0 15 3.35786 15 7.5C15 11.6421 11.6421 15 7.5 15C3.35786 15 0 11.6421 0 7.5Z" fill="#FFFFFF" fill-rule="evenodd" transform="translate(0 38)" />
      <path id="Oval" d="M0 7.5C0 3.35786 3.35786 0 7.5 0C11.6421 0 15 3.35786 15 7.5C15 11.6421 11.6421 15 7.5 15C3.35786 15 0 11.6421 0 7.5Z" fill="#FFFFFF" fill-rule="evenodd" transform="translate(22 0)" />
      <path id="Oval" d="M0 7.5C0 3.35786 3.35786 0 7.5 0C11.6421 0 15 3.35786 15 7.5C15 11.6421 11.6421 15 7.5 15C3.35786 15 0 11.6421 0 7.5Z" fill="#FFFFFF" fill-rule="evenodd" transform="translate(22 19)" />
      <path id="Oval" d="M0 7.5C0 3.35786 3.35786 0 7.5 0C11.6421 0 15 3.35786 15 7.5C15 11.6421 11.6421 15 7.5 15C3.35786 15 0 11.6421 0 7.5Z" fill="#FFFFFF" fill-rule="evenodd" transform="translate(22 38)" />
      <path id="Oval" d="M0 7.5C0 3.35786 3.35786 0 7.5 0C11.6421 0 15 3.35786 15 7.5C15 11.6421 11.6421 15 7.5 15C3.35786 15 0 11.6421 0 7.5Z" fill="#FFFFFF" fill-rule="evenodd" transform="translate(45 0)" />
      <path id="Oval" d="M0 7.5C0 3.35786 3.35786 0 7.5 0C11.6421 0 15 3.35786 15 7.5C15 11.6421 11.6421 15 7.5 15C3.35786 15 0 11.6421 0 7.5Z" fill="#FFFFFF" fill-rule="evenodd" transform="translate(45 19)" />
      <path id="Oval" d="M0 7.5C0 3.35786 3.35786 0 7.5 0C11.6421 0 15 3.35786 15 7.5C15 11.6421 11.6421 15 7.5 15C3.35786 15 0 11.6421 0 7.5Z" fill="#FFFFFF" fill-rule="evenodd" transform="translate(45 38)" />
      <path id="Oval" d="M0 7.5C0 3.35786 3.35786 0 7.5 0C11.6421 0 15 3.35786 15 7.5C15 11.6421 11.6421 15 7.5 15C3.35786 15 0 11.6421 0 7.5Z" fill="#FFFFFF" fill-rule="evenodd" transform="translate(67 0)" />
      <path id="Oval" d="M0 7.5C0 3.35786 3.35786 0 7.5 0C11.6421 0 15 3.35786 15 7.5C15 11.6421 11.6421 15 7.5 15C3.35786 15 0 11.6421 0 7.5Z" fill="#FFFFFF" fill-rule="evenodd" transform="translate(67 19)" />
      <path id="Oval" d="M0 7.5C0 3.35786 3.35786 0 7.5 0C11.6421 0 15 3.35786 15 7.5C15 11.6421 11.6421 15 7.5 15C3.35786 15 0 11.6421 0 7.5Z" fill="#FFFFFF" fill-rule="evenodd" transform="translate(67 38)" />
    </g>
  </g>
</svg>